<svg width="1024" height="1024" viewBox="0 0 1024 1024" fill="none" xmlns="http://www.w3.org/2000/svg">
<rect width="1024" height="1024" fill="#2E4247"/>
<path d="M751.067 616.885C745.158 607.335 737.168 598.717 727.14 590.72C715.322 581.286 701.548 574.027 687.067 568.669C664.43 560.362 639.463 556.984 615.203 556.751C627.021 556.868 641.377 576.861 646.246 585.168C668.883 623.329 661.725 680.706 636.384 716.498C627.728 728.533 616.784 740.916 605.923 751.359C579.375 776.825 542.34 788.045 504.723 788.045H396.115V236.714H429.363C536.39 236.714 581.955 294.751 581.955 352.827C581.955 358.184 581.705 363.386 581.331 368.627C581.331 368.627 580.707 377.245 577.918 392.152C575.089 407.253 571.344 422.199 566.808 436.912C560.4 457.604 552.452 477.868 543.089 497.511C531.604 521.58 517.955 544.795 502.268 566.69C490.075 583.732 476.302 599.842 464.442 617.04C469.602 613.119 475.012 609.586 479.963 605.471C509.05 581.713 539.51 559.469 569.097 536.177C569.346 536.06 569.721 535.827 570.054 535.478C570.303 535.245 570.678 535.012 571.011 534.779C571.51 534.43 571.968 534.08 572.467 533.653C574.423 532.411 576.961 530.586 579.541 528.645C582.454 526.161 585.367 523.754 588.322 521.386C588.571 521.269 588.821 521.037 589.071 520.804C649.7 470.57 706.583 410.165 706.583 349.605C706.583 274.293 631.099 226 454.871 226H261V226.776C293.499 242.343 298.742 277.554 298.742 308.688V798.681H530.273C592.025 798.681 659.603 789.365 710.245 753.921C743.119 730.862 765.756 695.768 763.342 656.443C762.427 641.458 758.307 628.453 751.108 616.846L751.067 616.885Z" fill="white"/>
</svg>
